{
	"asset":{
		"generator":"Khronos glTF Blender I/O v4.3.47",
		"version":"2.0"
	},
	"scene":0,
	"scenes":[
		{
			"name":"Scene",
			"nodes":[
				18
			]
		}
	],
	"nodes":[
		{
			"mesh":0,
			"name":"G43_Barrel_M_G43_0"
		},
		{
			"children":[
				0
			],
			"name":"G43_Barrel"
		},
		{
			"mesh":1,
			"name":"G43_M_G43_0"
		},
		{
			"mesh":2,
			"name":"9mm_Bullet_M_G43_0"
		},
		{
			"children":[
				3
			],
			"name":"9mm_Bullet"
		},
		{
			"mesh":3,
			"name":"9mm_Shell_M_G43_0"
		},
		{
			"children":[
				4,
				5
			],
			"name":"9mm_Shell"
		},
		{
			"mesh":4,
			"name":"G43_Magazine_M_G43_0"
		},
		{
			"children":[
				6,
				7
			],
			"name":"G43_Magazine"
		},
		{
			"mesh":5,
			"name":"G43_Slide_M_G43_0"
		},
		{
			"children":[
				9
			],
			"name":"G43_Slide"
		},
		{
			"mesh":6,
			"name":"G43_SlideStop_M_G43_0"
		},
		{
			"children":[
				11
			],
			"name":"G43_SlideStop"
		},
		{
			"mesh":7,
			"name":"G43_Trigger_M_G43_0"
		},
		{
			"children":[
				13
			],
			"name":"G43_Trigger",
			"translation":[
				0,
				0.00475538894534111,
				0.012237146496772766
			]
		},
		{
			"children":[
				1,
				2,
				8,
				10,
				12,
				14
			],
			"name":"G43",
			"rotation":[
				-0.70710688829422,
				0,
				0,
				0.7071066498756409
			],
			"scale":[
				100.00000762939453,
				99.99998474121094,
				99.99998474121094
			]
		},
		{
			"children":[
				15
			],
			"name":"RootNode"
		},
		{
			"children":[
				16
			],
			"name":"2f48ba98c2b04732afd15667f9a60b2b.fbx",
			"rotation":[
				0.70710688829422,
				0,
				0,
				0.7071066498756409
			],
			"scale":[
				0.009999999776482582,
				0.009999998845160007,
				0.009999998845160007
			]
		},
		{
			"children":[
				17
			],
			"name":"Sketchfab_model",
			"rotation":[
				-0.70710688829422,
				0,
				0,
				0.7071066498756409
			]
		}
	],
	"animations":[
		{
			"channels":[
				{
					"sampler":0,
					"target":{
						"node":15,
						"path":"translation"
					}
				}
			],
			"name":"reload_magazine_G43",
			"samplers":[
				{
					"input":32,
					"interpolation":"LINEAR",
					"output":33
				}
			]
		},
		{
			"channels":[
				{
					"sampler":0,
					"target":{
						"node":15,
						"path":"translation"
					}
				},
				{
					"sampler":1,
					"target":{
						"node":8,
						"path":"translation"
					}
				},
				{
					"sampler":2,
					"target":{
						"node":10,
						"path":"translation"
					}
				}
			],
			"name":"shoot_combined",
			"samplers":[
				{
					"input":34,
					"interpolation":"LINEAR",
					"output":35
				},
				{
					"input":34,
					"interpolation":"LINEAR",
					"output":36
				},
				{
					"input":34,
					"interpolation":"LINEAR",
					"output":37
				}
			]
		},
		{
			"channels":[
				{
					"sampler":0,
					"target":{
						"node":8,
						"path":"translation"
					}
				}
			],
			"name":"reload_magazine.001",
			"samplers":[
				{
					"input":32,
					"interpolation":"LINEAR",
					"output":38
				}
			]
		},
		{
			"channels":[
				{
					"sampler":0,
					"target":{
						"node":9,
						"path":"translation"
					}
				}
			],
			"name":"shoot",
			"samplers":[
				{
					"input":39,
					"interpolation":"LINEAR",
					"output":40
				}
			]
		}
	],
	"materials":[
		{
			"name":"M_G43",
			"normalTexture":{
				"index":0
			},
			"occlusionTexture":{
				"index":1
			},
			"pbrMetallicRoughness":{
				"baseColorTexture":{
					"index":2
				},
				"metallicRoughnessTexture":{
					"index":1
				}
			}
		}
	],
	"meshes":[
		{
			"name":"G43_Barrel_M_G43_0",
			"primitives":[
				{
					"attributes":{
						"POSITION":0,
						"NORMAL":1,
						"TEXCOORD_0":2
					},
					"indices":3,
					"material":0
				}
			]
		},
		{
			"name":"G43_M_G43_0",
			"primitives":[
				{
					"attributes":{
						"POSITION":4,
						"NORMAL":5,
						"TEXCOORD_0":6
					},
					"indices":7,
					"material":0
				}
			]
		},
		{
			"name":"9mm_Bullet_M_G43_0",
			"primitives":[
				{
					"attributes":{
						"POSITION":8,
						"NORMAL":9,
						"TEXCOORD_0":10
					},
					"indices":11,
					"material":0
				}
			]
		},
		{
			"name":"9mm_Shell_M_G43_0",
			"primitives":[
				{
					"attributes":{
						"POSITION":12,
						"NORMAL":13,
						"TEXCOORD_0":14
					},
					"indices":15,
					"material":0
				}
			]
		},
		{
			"name":"G43_Magazine_M_G43_0",
			"primitives":[
				{
					"attributes":{
						"POSITION":16,
						"NORMAL":17,
						"TEXCOORD_0":18
					},
					"indices":19,
					"material":0
				}
			]
		},
		{
			"name":"G43_Slide_M_G43_0",
			"primitives":[
				{
					"attributes":{
						"POSITION":20,
						"NORMAL":21,
						"TEXCOORD_0":22
					},
					"indices":23,
					"material":0
				}
			]
		},
		{
			"name":"G43_SlideStop_M_G43_0",
			"primitives":[
				{
					"attributes":{
						"POSITION":24,
						"NORMAL":25,
						"TEXCOORD_0":26
					},
					"indices":27,
					"material":0
				}
			]
		},
		{
			"name":"G43_Trigger_M_G43_0",
			"primitives":[
				{
					"attributes":{
						"POSITION":28,
						"NORMAL":29,
						"TEXCOORD_0":30
					},
					"indices":31,
					"material":0
				}
			]
		}
	],
	"textures":[
		{
			"sampler":0,
			"source":0
		},
		{
			"sampler":0,
			"source":1
		},
		{
			"sampler":0,
			"source":2
		}
	],
	"images":[
		{
			"mimeType":"image/png",
			"name":"M_G43_normal",
			"uri":"M_G43_normal.png"
		},
		{
			"mimeType":"image/png",
			"name":"M_G43_metallicRoughness",
			"uri":"M_G43_metallicRoughness.png"
		},
		{
			"mimeType":"image/png",
			"name":"M_G43_baseColor",
			"uri":"M_G43_baseColor.png"
		}
	],
	"accessors":[
		{
			"bufferView":0,
			"componentType":5126,
			"count":122,
			"max":[
				0.0075940703973174095,
				0.07956001162528992,
				0.046653952449560165
			],
			"min":[
				-0.007594071328639984,
				-0.007533099502325058,
				0.029599914327263832
			],
			"type":"VEC3"
		},
		{
			"bufferView":1,
			"componentType":5126,
			"count":122,
			"type":"VEC3"
		},
		{
			"bufferView":2,
			"componentType":5126,
			"count":122,
			"type":"VEC2"
		},
		{
			"bufferView":3,
			"componentType":5123,
			"count":288,
			"type":"SCALAR"
		},
		{
			"bufferView":4,
			"componentType":5126,
			"count":549,
			"max":[
				0.011877506971359253,
				0.07956001162528992,
				0.02634667046368122
			],
			"min":[
				-0.011877506971359253,
				-0.07965164631605148,
				-0.051698967814445496
			],
			"type":"VEC3"
		},
		{
			"bufferView":5,
			"componentType":5126,
			"count":549,
			"type":"VEC3"
		},
		{
			"bufferView":6,
			"componentType":5126,
			"count":549,
			"type":"VEC2"
		},
		{
			"bufferView":7,
			"componentType":5123,
			"count":1752,
			"type":"SCALAR"
		},
		{
			"bufferView":8,
			"componentType":5126,
			"count":156,
			"max":[
				0.0045816912315785885,
				-0.009249350056052208,
				0.028283026069402695
			],
			"min":[
				-0.0045816912315785885,
				-0.02361835539340973,
				0.019003987312316895
			],
			"type":"VEC3"
		},
		{
			"bufferView":9,
			"componentType":5126,
			"count":156,
			"type":"VEC3"
		},
		{
			"bufferView":10,
			"componentType":5126,
			"count":156,
			"type":"VEC2"
		},
		{
			"bufferView":11,
			"componentType":5123,
			"count":714,
			"type":"SCALAR"
		},
		{
			"bufferView":12,
			"componentType":5126,
			"count":72,
			"max":[
				0.0050456225872039795,
				-0.019680500030517578,
				0.028597235679626465
			],
			"min":[
				-0.0050456225872039795,
				-0.03920654207468033,
				0.018037403002381325
			],
			"type":"VEC3"
		},
		{
			"bufferView":13,
			"componentType":5126,
			"count":72,
			"type":"VEC3"
		},
		{
			"bufferView":14,
			"componentType":5126,
			"count":72,
			"type":"VEC2"
		},
		{
			"bufferView":15,
			"componentType":5123,
			"count":180,
			"type":"SCALAR"
		},
		{
			"bufferView":16,
			"componentType":5126,
			"count":212,
			"max":[
				0.011831632815301418,
				-0.010588172823190689,
				0.026731576770544052
			],
			"min":[
				-0.011831632815301418,
				-0.07341612130403519,
				-0.057902272790670395
			],
			"type":"VEC3"
		},
		{
			"bufferView":17,
			"componentType":5126,
			"count":212,
			"type":"VEC3"
		},
		{
			"bufferView":18,
			"componentType":5126,
			"count":212,
			"type":"VEC2"
		},
		{
			"bufferView":19,
			"componentType":5123,
			"count":432,
			"type":"SCALAR"
		},
		{
			"bufferView":20,
			"componentType":5126,
			"count":245,
			"max":[
				0.010999999940395355,
				0.07738793641328812,
				0.05142155662178993
			],
			"min":[
				-0.010999999940395355,
				-0.07474154233932495,
				0.013846046291291714
			],
			"type":"VEC3"
		},
		{
			"bufferView":21,
			"componentType":5126,
			"count":245,
			"type":"VEC3"
		},
		{
			"bufferView":22,
			"componentType":5126,
			"count":245,
			"type":"VEC2"
		},
		{
			"bufferView":23,
			"componentType":5123,
			"count":570,
			"type":"SCALAR"
		},
		{
			"bufferView":24,
			"componentType":5126,
			"count":51,
			"max":[
				-0.008347799070179462,
				-0.019599270075559616,
				0.02569948323071003
			],
			"min":[
				-0.014523480087518692,
				-0.030450940132141113,
				0.018713535740971565
			],
			"type":"VEC3"
		},
		{
			"bufferView":25,
			"componentType":5126,
			"count":51,
			"type":"VEC3"
		},
		{
			"bufferView":26,
			"componentType":5126,
			"count":51,
			"type":"VEC2"
		},
		{
			"bufferView":27,
			"componentType":5123,
			"count":111,
			"type":"SCALAR"
		},
		{
			"bufferView":28,
			"componentType":5126,
			"count":146,
			"max":[
				0.0038899770006537437,
				0.008056792430579662,
				0
			],
			"min":[
				-0.0038899779319763184,
				-0.015431690029799938,
				-0.025955401360988617
			],
			"type":"VEC3"
		},
		{
			"bufferView":29,
			"componentType":5126,
			"count":146,
			"type":"VEC3"
		},
		{
			"bufferView":30,
			"componentType":5126,
			"count":146,
			"type":"VEC2"
		},
		{
			"bufferView":31,
			"componentType":5123,
			"count":324,
			"type":"SCALAR"
		},
		{
			"bufferView":32,
			"componentType":5126,
			"count":56,
			"max":[
				2.2916666666666665
			],
			"min":[
				0
			],
			"type":"SCALAR"
		},
		{
			"bufferView":33,
			"componentType":5126,
			"count":56,
			"type":"VEC3"
		},
		{
			"bufferView":34,
			"componentType":5126,
			"count":61,
			"max":[
				2.5
			],
			"min":[
				0
			],
			"type":"SCALAR"
		},
		{
			"bufferView":35,
			"componentType":5126,
			"count":61,
			"type":"VEC3"
		},
		{
			"bufferView":36,
			"componentType":5126,
			"count":61,
			"type":"VEC3"
		},
		{
			"bufferView":37,
			"componentType":5126,
			"count":61,
			"type":"VEC3"
		},
		{
			"bufferView":38,
			"componentType":5126,
			"count":56,
			"type":"VEC3"
		},
		{
			"bufferView":39,
			"componentType":5126,
			"count":5,
			"max":[
				0.20833333333333334
			],
			"min":[
				0.041666666666666664
			],
			"type":"SCALAR"
		},
		{
			"bufferView":40,
			"componentType":5126,
			"count":5,
			"type":"VEC3"
		}
	],
	"bufferViews":[
		{
			"buffer":0,
			"byteLength":1464,
			"byteOffset":0,
			"target":34962
		},
		{
			"buffer":0,
			"byteLength":1464,
			"byteOffset":1464,
			"target":34962
		},
		{
			"buffer":0,
			"byteLength":976,
			"byteOffset":2928,
			"target":34962
		},
		{
			"buffer":0,
			"byteLength":576,
			"byteOffset":3904,
			"target":34963
		},
		{
			"buffer":0,
			"byteLength":6588,
			"byteOffset":4480,
			"target":34962
		},
		{
			"buffer":0,
			"byteLength":6588,
			"byteOffset":11068,
			"target":34962
		},
		{
			"buffer":0,
			"byteLength":4392,
			"byteOffset":17656,
			"target":34962
		},
		{
			"buffer":0,
			"byteLength":3504,
			"byteOffset":22048,
			"target":34963
		},
		{
			"buffer":0,
			"byteLength":1872,
			"byteOffset":25552,
			"target":34962
		},
		{
			"buffer":0,
			"byteLength":1872,
			"byteOffset":27424,
			"target":34962
		},
		{
			"buffer":0,
			"byteLength":1248,
			"byteOffset":29296,
			"target":34962
		},
		{
			"buffer":0,
			"byteLength":1428,
			"byteOffset":30544,
			"target":34963
		},
		{
			"buffer":0,
			"byteLength":864,
			"byteOffset":31972,
			"target":34962
		},
		{
			"buffer":0,
			"byteLength":864,
			"byteOffset":32836,
			"target":34962
		},
		{
			"buffer":0,
			"byteLength":576,
			"byteOffset":33700,
			"target":34962
		},
		{
			"buffer":0,
			"byteLength":360,
			"byteOffset":34276,
			"target":34963
		},
		{
			"buffer":0,
			"byteLength":2544,
			"byteOffset":34636,
			"target":34962
		},
		{
			"buffer":0,
			"byteLength":2544,
			"byteOffset":37180,
			"target":34962
		},
		{
			"buffer":0,
			"byteLength":1696,
			"byteOffset":39724,
			"target":34962
		},
		{
			"buffer":0,
			"byteLength":864,
			"byteOffset":41420,
			"target":34963
		},
		{
			"buffer":0,
			"byteLength":2940,
			"byteOffset":42284,
			"target":34962
		},
		{
			"buffer":0,
			"byteLength":2940,
			"byteOffset":45224,
			"target":34962
		},
		{
			"buffer":0,
			"byteLength":1960,
			"byteOffset":48164,
			"target":34962
		},
		{
			"buffer":0,
			"byteLength":1140,
			"byteOffset":50124,
			"target":34963
		},
		{
			"buffer":0,
			"byteLength":612,
			"byteOffset":51264,
			"target":34962
		},
		{
			"buffer":0,
			"byteLength":612,
			"byteOffset":51876,
			"target":34962
		},
		{
			"buffer":0,
			"byteLength":408,
			"byteOffset":52488,
			"target":34962
		},
		{
			"buffer":0,
			"byteLength":222,
			"byteOffset":52896,
			"target":34963
		},
		{
			"buffer":0,
			"byteLength":1752,
			"byteOffset":53120,
			"target":34962
		},
		{
			"buffer":0,
			"byteLength":1752,
			"byteOffset":54872,
			"target":34962
		},
		{
			"buffer":0,
			"byteLength":1168,
			"byteOffset":56624,
			"target":34962
		},
		{
			"buffer":0,
			"byteLength":648,
			"byteOffset":57792,
			"target":34963
		},
		{
			"buffer":0,
			"byteLength":224,
			"byteOffset":58440
		},
		{
			"buffer":0,
			"byteLength":672,
			"byteOffset":58664
		},
		{
			"buffer":0,
			"byteLength":244,
			"byteOffset":59336
		},
		{
			"buffer":0,
			"byteLength":732,
			"byteOffset":59580
		},
		{
			"buffer":0,
			"byteLength":732,
			"byteOffset":60312
		},
		{
			"buffer":0,
			"byteLength":732,
			"byteOffset":61044
		},
		{
			"buffer":0,
			"byteLength":672,
			"byteOffset":61776
		},
		{
			"buffer":0,
			"byteLength":20,
			"byteOffset":62448
		},
		{
			"buffer":0,
			"byteLength":60,
			"byteOffset":62468
		}
	],
	"samplers":[
		{
			"magFilter":9729,
			"minFilter":9987
		}
	],
	"buffers":[
		{
			"byteLength":62528,
			"uri":"scene.bin"
		}
	]
}
